<?xml version="1.0" encoding="UTF-8"?>
<!DOCTYPE svg PUBLIC "-//W3C//DTD SVG 1.1//EN" "http://www.w3.org/Graphics/SVG/1.1/DTD/svg11.dtd">
<svg version="1.2" width="215.9mm" height="279.4mm" viewBox="0 0 21590 27940" preserveAspectRatio="xMidYMid" fill-rule="evenodd" stroke-width="28.222" stroke-linejoin="round" xmlns="http://www.w3.org/2000/svg" xmlns:ooo="http://xml.openoffice.org/svg/export" xmlns:xlink="http://www.w3.org/1999/xlink" xmlns:presentation="http://sun.com/xmlns/staroffice/presentation" xmlns:smil="http://www.w3.org/2001/SMIL20/" xmlns:anim="urn:oasis:names:tc:opendocument:xmlns:animation:1.0" xml:space="preserve">
 <defs class="ClipPathGroup">
  <clipPath id="presentation_clip_path" clipPathUnits="userSpaceOnUse">
   <rect x="0" y="0" width="21590" height="27940"/>
  </clipPath>
  <clipPath id="presentation_clip_path_shrink" clipPathUnits="userSpaceOnUse">
   <rect x="21" y="27" width="21547" height="27885"/>
  </clipPath>
 </defs>
 <defs class="TextShapeIndex">
  <g ooo:slide="id1" ooo:id-list="id3 id4 id5 id6 id7 id8 id9 id10 id11 id12 id13 id14 id15 id16 id17 id18 id19 id20 id21 id22 id23 id24"/>
 </defs>
 <defs class="EmbeddedBulletChars">
  <g id="bullet-char-template-57356" transform="scale(0.00048828125,-0.00048828125)">
   <path d="M 580,1141 L 1163,571 580,0 -4,571 580,1141 Z"/>
  </g>
  <g id="bullet-char-template-57354" transform="scale(0.00048828125,-0.00048828125)">
   <path d="M 8,1128 L 1137,1128 1137,0 8,0 8,1128 Z"/>
  </g>
  <g id="bullet-char-template-10146" transform="scale(0.00048828125,-0.00048828125)">
   <path d="M 174,0 L 602,739 174,1481 1456,739 174,0 Z M 1358,739 L 309,1346 659,739 1358,739 Z"/>
  </g>
  <g id="bullet-char-template-10132" transform="scale(0.00048828125,-0.00048828125)">
   <path d="M 2015,739 L 1276,0 717,0 1260,543 174,543 174,936 1260,936 717,1481 1274,1481 2015,739 Z"/>
  </g>
  <g id="bullet-char-template-10007" transform="scale(0.00048828125,-0.00048828125)">
   <path d="M 0,-2 C -7,14 -16,27 -25,37 L 356,567 C 262,823 215,952 215,954 215,979 228,992 255,992 264,992 276,990 289,987 310,991 331,999 354,1012 L 381,999 492,748 772,1049 836,1024 860,1049 C 881,1039 901,1025 922,1006 886,937 835,863 770,784 769,783 710,716 594,584 L 774,223 C 774,196 753,168 711,139 L 727,119 C 717,90 699,76 672,76 641,76 570,178 457,381 L 164,-76 C 142,-110 111,-127 72,-127 30,-127 9,-110 8,-76 1,-67 -2,-52 -2,-32 -2,-23 -1,-13 0,-2 Z"/>
  </g>
  <g id="bullet-char-template-10004" transform="scale(0.00048828125,-0.00048828125)">
   <path d="M 285,-33 C 182,-33 111,30 74,156 52,228 41,333 41,471 41,549 55,616 82,672 116,743 169,778 240,778 293,778 328,747 346,684 L 369,508 C 377,444 397,411 428,410 L 1163,1116 C 1174,1127 1196,1133 1229,1133 1271,1133 1292,1118 1292,1087 L 1292,965 C 1292,929 1282,901 1262,881 L 442,47 C 390,-6 338,-33 285,-33 Z"/>
  </g>
  <g id="bullet-char-template-9679" transform="scale(0.00048828125,-0.00048828125)">
   <path d="M 813,0 C 632,0 489,54 383,161 276,268 223,411 223,592 223,773 276,916 383,1023 489,1130 632,1184 813,1184 992,1184 1136,1130 1245,1023 1353,916 1407,772 1407,592 1407,412 1353,268 1245,161 1136,54 992,0 813,0 Z"/>
  </g>
  <g id="bullet-char-template-8226" transform="scale(0.00048828125,-0.00048828125)">
   <path d="M 346,457 C 273,457 209,483 155,535 101,586 74,649 74,723 74,796 101,859 155,911 209,963 273,989 346,989 419,989 480,963 531,910 582,859 608,796 608,723 608,648 583,586 532,535 482,483 420,457 346,457 Z"/>
  </g>
  <g id="bullet-char-template-8211" transform="scale(0.00048828125,-0.00048828125)">
   <path d="M -4,459 L 1135,459 1135,606 -4,606 -4,459 Z"/>
  </g>
  <g id="bullet-char-template-61548" transform="scale(0.00048828125,-0.00048828125)">
   <path d="M 173,740 C 173,903 231,1043 346,1159 462,1274 601,1332 765,1332 928,1332 1067,1274 1183,1159 1299,1043 1357,903 1357,740 1357,577 1299,437 1183,322 1067,206 928,148 765,148 601,148 462,206 346,322 231,437 173,577 173,740 Z"/>
  </g>
 </defs>
 <defs class="TextEmbeddedBitmaps"/>
 <g>
  <g id="id2" class="Master_Slide">
   <g id="bg-id2" class="Background"/>
   <g id="bo-id2" class="BackgroundObjects"/>
  </g>
 </g>
 <g class="SlideGroup">
  <g>
   <g id="container-id1">
    <g id="id1" class="Slide" clip-path="url(#presentation_clip_path)">
     <g class="Page">
      <g class="com.sun.star.drawing.CustomShape">
       <g id="id3">
        <rect class="BoundingBox" stroke="none" fill="none" x="2904" y="12555" width="14989" height="7242"/>
        <path fill="rgb(237,28,36)" stroke="none" d="M 10398,19795 L 2905,19795 2905,12556 17891,12556 17891,19795 10398,19795 Z"/>
        <path fill="none" stroke="rgb(239,65,61)" d="M 10398,19795 L 2905,19795 2905,12556 17891,12556 17891,19795 10398,19795 Z"/>
       </g>
      </g>
      <g class="com.sun.star.drawing.CustomShape">
       <g id="id4">
        <rect class="BoundingBox" stroke="none" fill="none" x="3765" y="6586" width="13338" height="6372"/>
        <path fill="rgb(255,255,255)" stroke="none" d="M 10434,12956 L 3766,12956 3766,6587 17101,6587 17101,12956 10434,12956 Z"/>
        <path fill="none" stroke="rgb(0,0,0)" d="M 10434,12956 L 3766,12956 3766,6587 17101,6587 17101,12956 10434,12956 Z"/>
       </g>
      </g>
      <g class="com.sun.star.drawing.LineShape">
       <g id="id5">
        <rect class="BoundingBox" stroke="none" fill="none" x="5698" y="9508" width="3" height="2670"/>
        <path fill="none" stroke="rgb(0,0,0)" d="M 5699,9509 L 5699,12176"/>
       </g>
      </g>
      <g class="com.sun.star.drawing.LineShape">
       <g id="id6">
        <rect class="BoundingBox" stroke="none" fill="none" x="4936" y="8127" width="765" height="1552"/>
        <path fill="none" stroke="rgb(0,0,0)" d="M 4937,8128 L 5699,9677"/>
       </g>
      </g>
      <g class="com.sun.star.drawing.LineShape">
       <g id="id7">
        <rect class="BoundingBox" stroke="none" fill="none" x="5698" y="8238" width="765" height="1442"/>
        <path fill="none" stroke="rgb(0,0,0)" d="M 6461,8239 L 5699,9678"/>
       </g>
      </g>
      <g class="com.sun.star.drawing.CustomShape">
       <g id="id8">
        <rect class="BoundingBox" stroke="none" fill="none" x="7383" y="9354" width="2417" height="2544"/>
        <path fill="rgb(255,255,255)" stroke="none" d="M 8590,9355 C 9274,9355 9797,9905 9797,10625 9797,11345 9274,11895 8590,11895 7906,11895 7384,11345 7384,10625 7384,9905 7906,9355 8590,9355 Z M 7384,9355 L 7384,9355 Z M 9798,11896 L 9798,11896 Z"/>
        <path fill="none" stroke="rgb(0,0,0)" d="M 8590,9355 C 9274,9355 9797,9905 9797,10625 9797,11345 9274,11895 8590,11895 7906,11895 7384,11345 7384,10625 7384,9905 7906,9355 8590,9355 Z"/>
        <path fill="none" stroke="rgb(0,0,0)" d="M 7384,9355 L 7384,9355 Z"/>
        <path fill="none" stroke="rgb(0,0,0)" d="M 9798,11896 L 9798,11896 Z"/>
       </g>
      </g>
      <g class="com.sun.star.drawing.ConnectorShape">
       <g id="id9">
        <rect class="BoundingBox" stroke="none" fill="none" x="17101" y="9771" width="3" height="3"/>
        <path fill="none" stroke="rgb(0,0,0)" d="M 17102,9772 L 17102,9772 Z"/>
       </g>
      </g>
      <g class="com.sun.star.drawing.LineShape">
       <g id="id10">
        <rect class="BoundingBox" stroke="none" fill="none" x="11286" y="9254" width="384" height="2543"/>
        <path fill="none" stroke="rgb(0,0,0)" d="M 11668,9255 L 11287,11795"/>
       </g>
      </g>
      <g class="com.sun.star.drawing.LineShape">
       <g id="id11">
        <rect class="BoundingBox" stroke="none" fill="none" x="11286" y="11413" width="2289" height="130"/>
        <path fill="none" stroke="rgb(0,0,0)" d="M 11287,11541 L 13573,11414"/>
       </g>
      </g>
      <g class="com.sun.star.drawing.LineShape">
       <g id="id12">
        <rect class="BoundingBox" stroke="none" fill="none" x="13445" y="9254" width="3" height="3051"/>
        <path fill="none" stroke="rgb(0,0,0)" d="M 13446,9255 L 13446,12303"/>
       </g>
      </g>
      <g class="com.sun.star.drawing.LineShape">
       <g id="id13">
        <rect class="BoundingBox" stroke="none" fill="none" x="4682" y="14842" width="3" height="4067"/>
        <path fill="none" stroke="rgb(0,0,0)" d="M 4683,14843 L 4683,18907"/>
       </g>
      </g>
      <g class="com.sun.star.drawing.LineShape">
       <g id="id14">
        <rect class="BoundingBox" stroke="none" fill="none" x="3539" y="14569" width="2797" height="511"/>
        <path fill="none" stroke="rgb(0,0,0)" d="M 3540,15078 L 6334,14570"/>
       </g>
      </g>
      <g class="com.sun.star.drawing.LineShape">
       <g id="id15">
        <rect class="BoundingBox" stroke="none" fill="none" x="6841" y="16112" width="257" height="2543"/>
        <path fill="none" stroke="rgb(0,0,0)" d="M 7096,16113 L 6842,18653"/>
       </g>
      </g>
      <g class="com.sun.star.drawing.LineShape">
       <g id="id16">
        <rect class="BoundingBox" stroke="none" fill="none" x="6841" y="18525" width="1527" height="130"/>
        <path fill="none" stroke="rgb(0,0,0)" d="M 8366,18526 L 6842,18653"/>
       </g>
      </g>
      <g class="com.sun.star.drawing.LineShape">
       <g id="id17">
        <rect class="BoundingBox" stroke="none" fill="none" x="8238" y="16493" width="257" height="2670"/>
        <path fill="none" stroke="rgb(0,0,0)" d="M 8493,16494 L 8239,19161"/>
       </g>
      </g>
      <g class="com.sun.star.drawing.LineShape">
       <g id="id18">
        <rect class="BoundingBox" stroke="none" fill="none" x="9508" y="16112" width="384" height="3051"/>
        <path fill="none" stroke="rgb(0,0,0)" d="M 9890,16113 L 9509,19161"/>
       </g>
      </g>
      <g class="com.sun.star.drawing.LineShape">
       <g id="id19">
        <rect class="BoundingBox" stroke="none" fill="none" x="9381" y="18017" width="1654" height="384"/>
        <path fill="none" stroke="rgb(0,0,0)" d="M 9382,18018 L 11033,18399"/>
       </g>
      </g>
      <g class="com.sun.star.drawing.LineShape">
       <g id="id20">
        <rect class="BoundingBox" stroke="none" fill="none" x="9254" y="18398" width="1654" height="511"/>
        <path fill="none" stroke="rgb(0,0,0)" d="M 9255,18907 L 10906,18399"/>
       </g>
      </g>
      <g class="com.sun.star.drawing.LineShape">
       <g id="id21">
        <rect class="BoundingBox" stroke="none" fill="none" x="11921" y="15858" width="1273" height="3051"/>
        <path fill="none" stroke="rgb(0,0,0)" d="M 13192,15859 L 11922,18907"/>
       </g>
      </g>
      <g class="com.sun.star.drawing.LineShape">
       <g id="id22">
        <rect class="BoundingBox" stroke="none" fill="none" x="11921" y="18779" width="1654" height="130"/>
        <path fill="none" stroke="rgb(0,0,0)" d="M 13573,18780 L 11922,18907"/>
       </g>
      </g>
      <g class="com.sun.star.drawing.LineShape">
       <g id="id23">
        <rect class="BoundingBox" stroke="none" fill="none" x="13064" y="15985" width="892" height="257"/>
        <path fill="none" stroke="rgb(0,0,0)" d="M 13954,16240 L 13065,15986"/>
       </g>
      </g>
      <g class="com.sun.star.drawing.LineShape">
       <g id="id24">
        <rect class="BoundingBox" stroke="none" fill="none" x="12175" y="17509" width="1400" height="257"/>
        <path fill="none" stroke="rgb(0,0,0)" d="M 13573,17510 L 12176,17764"/>
       </g>
      </g>
     </g>
    </g>
   </g>
  </g>
 </g>
</svg>